<svg xmlns="http://www.w3.org/2000/svg" width="20" height="20" enable-background="new 0 0 64 64" viewBox="0 0 64 64"><path d="M12,37c-0.6,0-1,0.4-1,1s0.4,1,1,1h2c0.6,0,1-0.4,1-1s-0.4-1-1-1H12z"/><path d="M56 57h-3v-2.9c4.7-1.9 8-6.5 8-11.9v-3.4c1.2-.4 2-1.5 2-2.8s-.8-2.4-2-2.8V12c0-.6-.4-1-1-1s-1 .4-1 1v21h-9c-.6 0-1 .4-1 1s.4 1 1 1h10c.6 0 1 .4 1 1s-.4 1-1 1H18c-.6 0-1 .4-1 1s.4 1 1 1h41v3.2c0 6-4.8 10.8-10.8 10.8H15.8C9.8 53 5 48.2 5 42.2V39h2.9c.6 0 1-.4 1-1s-.4-1-1-1H4c-.6 0-1-.4-1-1s.4-1 1-1h42c.6 0 1-.4 1-1s-.4-1-1-1H4c-1.7 0-3 1.3-3 3 0 1.3.8 2.4 2 2.8v3.4c0 5.4 3.3 10 8 11.9V57H2c-.6 0-1 .4-1 1s.4 1 1 1h38c.6 0 1-.4 1-1s-.4-1-1-1H17.6l1-2h26.8l1 2H44c-.6 0-1 .4-1 1s.4 1 1 1h12c.6 0 1-.4 1-1S56.6 57 56 57zM15.4 57H13v-2.3c1.3.4 3.4.3 3.4.3L15.4 57zM51 57h-2.4l-1-2c0 0 1.9 0 3.4-.3V57zM62 57h-2c-.6 0-1 .4-1 1s.4 1 1 1h2c.6 0 1-.4 1-1S62.6 57 62 57z"/><path d="M51.4 15.5c.6.5 1.2.2 1.4 0 1.7-1.7 1.9-4.3.7-6.2l2.3-1.9C57.5 6.2 59 7.9 59 8.9c0 .6.4 1 1 1s1-.4 1-1C61 6.8 59.2 5 57.1 5c-.9 0-1.8.3-2.5.9l-2.4 2c-2-1.3-4.6-1.1-6.4.6-.4.4-.4 1 0 1.4L51.4 15.5zM51.4 9.9c.9.9 1.1 2.3.6 3.4l-4-4C49.1 8.8 50.5 9 51.4 9.9zM35 28c0 .3 0 1 1 1 1.3 0 2.3.8 2.8 2 .4.9 1.3.6 1.5.5 1.7-1 2.8-.4 3.2-.1.3.2.8.2 1.1 0 .3-.2.5-.6.4-1 0 0-.4-3.3 3-3.5 1.7-.1 3 1.4 3 3 0 .6.4 1 1 1 .5 0 1.1.1 1.5.4.5.3 1.1.1 1.4-.3.3-.5.1-1.1-.3-1.4-.5-.3-1.1-.5-1.7-.6-.4-2.3-2.5-4.1-4.9-4.1-4.2.1-4.7 3.3-4.8 4.1-.8-.2-1.8-.2-3 .2-.7-1.2-1.9-2-3.3-2.3-.3-1.4-1.1-2.8-2.3-3.8-.4-.4-1-.3-1.4.1-.4.4-.3 1.1.1 1.4C34.4 25.7 35 26.9 35 28zM8.5 31.4c.5-.3 1-.4 1.5-.4.6 0 1-.4 1-1 0-1.5.7-3 1.9-3.9 1.3-1 3.1-1.2 5.1-.7.5.1 1-.1 1.2-.6.5-1.1 1.5-1.8 2.8-1.8 1.1 0 2.1.6 2.6 1.5.1.3.7 1 1.5.3 1.1-1 2.3-1.5 3.7-1.4.6 0 1-.4 1-1 0-.6-.4-1-1-1-1.5-.1-2.9.4-4.2 1.3-.9-1-2.3-1.6-3.7-1.6-1.7 0-3.3.9-4.2 2.3-2.9-.6-4.9.3-6.1 1.2-1.4 1.1-2.4 2.8-2.6 4.6-.6.1-1.1.3-1.6.6C7 30 6.8 30.6 7.1 31.1 7.4 31.7 8.3 31.5 8.5 31.4z"/><path d="M13 30c0 .6.4 1 1 1s1-.4 1-1c0-.6.4-1 1-1 .6 0 1-.4 1-1s-.4-1-1-1C14.3 27 13 28.3 13 30zM44 51c.6 0 1-.4 1-1s-.4-1-1-1h-2c-.6 0-1 .4-1 1s.4 1 1 1H44zM57 42.1c0-.6-.4-1-1-1s-1 .4-1 1c0 3.8-3.1 6.9-6.9 6.9-.6 0-1 .4-1 1s.4 1 1 1C53 51 57 47 57 42.1z"/><circle cx="46.5" cy="14.8" r="1"/><circle cx="45" cy="19.1" r="1"/><circle cx="42.2" cy="16.2" r="1"/><circle cx="43.7" cy="23.3" r="1"/><circle cx="40.8" cy="20.5" r="1"/><circle cx="38" cy="17.7" r="1"/></svg>